<?xml version="1.0" encoding="UTF-8"?>
<svg id="Layer_1" data-name="Layer 1" xmlns="http://www.w3.org/2000/svg" viewBox="0 0 1500 1500">
  <defs>
    <style>
      .cls-1 {
        fill: #f9ce1a;
      }

      .cls-2 {
        fill: #4c9d2f;
      }
    </style>
  </defs>
  <path class="cls-2" d="M1287.76,602.24c.59,16.62,.2,32.41,.28,48.2,.07,15.6,.02,31.2,.02,47.53,2.13-.94,3.43-1.44,4.66-2.07,15.28-7.78,31.48-10.06,48.44-8.44,12.2,1.17,24.05,3.62,35.12,8.95,28.75,13.84,46.44,36.7,52.88,67.71,5.61,27.05,3.71,53.96-7.05,79.54-14.41,34.27-40.64,53.67-77.51,58.54-10.98,1.45-21.99,1.59-32.97-.08-10.56-1.6-20.42-5.17-29.5-10.84-1.34-.84-2.71-1.64-4.29-2.6-2.73,1.99-4.15,4.91-6.01,7.41-6.19,8.35-3.56,6.94-13.5,7.07-6.21,.08-12.42,.01-19.1,.01-.24-2.5-.59-4.49-.6-6.49-.04-16.95-.03-33.89-.03-50.84,0-74.34,0-148.69,0-223.03,0-10.99-.74-8.92,8.65-11.26,11.47-2.87,22.99-5.55,34.5-8.27,1.66-.39,3.37-.6,6-1.05Zm.29,192.77c0,16.46,.11,32.93-.08,49.39-.04,3.92,1.29,6.68,4.25,9.05,4.59,3.68,9.7,6.19,15.48,7.2,11.87,2.08,23.6,.71,35.14-2.17,17.12-4.27,28.28-15.09,33.23-31.95,5.61-19.06,6.28-38.48,2.02-57.85-3.7-16.82-13.25-29.31-29.85-35.42-12.54-4.62-25.54-5.54-38.73-3.56-6.08,.91-11.64,3.28-16.76,6.75-3.32,2.25-4.85,4.98-4.79,9.16,.2,16.46,.08,32.93,.08,49.39Z"/>
  <path class="cls-2" d="M845,899h-49.58c-.17-2.01-.43-3.71-.43-5.41-.02-91.63-.02-183.26-.01-274.9,0-5.06,.04-5.11,4.65-6.21,13.38-3.16,26.77-6.29,40.16-9.4,1.35-.31,2.76-.4,4.73-.67,.18,2.42,.46,4.41,.47,6.41,.03,29.26,.02,58.53,.02,87.79,0,1.85,0,3.69,0,6.26,1.76-1.01,2.74-1.45,3.58-2.09,9.3-7,19.9-10.86,31.28-12.57,15.19-2.28,30.32-1.78,45.18,2.27,26.31,7.17,43.03,24.1,50.4,50.3,2.62,9.3,3.7,18.84,3.73,28.45,.1,41.26,.04,82.52,.05,123.78,0,.32,0,.64,0,.96-.09,5.15-.24,5.35-5.48,5.36-12.63,.03-25.27,.03-37.9,0-5.73-.01-5.81-.08-5.81-5.98-.01-39.5,.03-79-.06-118.5-.01-4.77-.32-9.63-1.25-14.3-3.27-16.31-15.62-28.11-32.11-30.95-18.43-3.17-33.97,2.85-47.48,15.19-3.03,2.77-4.2,6-4.19,10.19,.12,45.58,.08,91.15,.08,136.73,0,2.2,0,4.4,0,7.27Z"/>
  <path class="cls-2" d="M123.55,811.05c.63,12.06,3.78,22.42,10.78,31.42,7.92,10.19,18.58,16.08,31.03,18.56,14.96,2.98,29.91,2.46,44.61-1.85,7.44-2.18,14.26-5.64,20.23-10.66,.95-.8,2.04-1.45,3.02-2.14,2.75,2.51,16.64,29,19.38,36.98-1.95,1.45-4,3.16-6.23,4.59-11.92,7.66-25.18,11.74-39.02,13.94-16.33,2.6-32.75,3.08-49.23,1.31-43.85-4.71-75.4-33.46-83.71-76.82-3.99-20.8-3.71-41.61,1.4-62.31,9.53-38.54,43.91-71.82,86.53-76.77,18.97-2.21,37.83-.88,55.67,6.38,33.47,13.63,52.78,38.6,58.06,74.43,1.92,13.03,.58,25.83-2.31,38.54-.81,3.59-1.21,3.87-4.8,4.03-1.44,.06-2.88,.02-4.32,.02-44.62,0-89.23,0-133.85,.02-2.19,0-4.39,.19-7.23,.33Zm2.32-38.13c1.43,.15,2.52,.36,3.6,.36,30.99,.02,61.98,.02,92.97,0,1.35,0,2.7-.33,4.2-.53,.52-5.4-1.07-9.95-2.56-14.46-5.13-15.55-15.7-25.2-31.73-28.8-7.57-1.7-15.23-1.71-22.89-1.11-21.31,1.67-39.13,17.22-43.59,44.55Z"/>
  <path class="cls-2" d="M601.53,736.46c-.43-1.17-1.02-2.47-1.4-3.82-2.71-9.7-5.39-19.41-8.03-29.13-1.12-4.12-.96-4.41,3-6.17,11.21-4.96,23.02-7.78,35.13-9.2,17.25-2.03,34.47-1.68,51.56,1.69,11.08,2.18,21.54,5.98,30.98,12.34,10.05,6.77,16.75,16.08,21.08,27.25,5.31,13.72,7.92,28.04,8.38,42.63,.64,20.29,.53,40.6,.85,60.9,.11,6.86,.25,13.76,.95,20.58,1.33,12.94,4.38,25.27,15.45,34.39-3.34,5.87-7.15,10.79-13.61,13-6.94,2.38-14.12,2.78-21.32,1.97-5.06-.57-9.41-3.02-13.23-6.33-4.26-3.7-7.94-7.88-10.49-12.97-.55-1.09-1.3-2.09-2.15-3.45-2.39,2.44-4.37,4.73-6.63,6.7-6.88,5.99-15.01,9.74-23.64,12.36-20.23,6.13-40.5,5.85-60.3-1.42-22.05-8.1-34.72-24.17-37.94-47.58-1.25-9.12-1.07-18.19,.62-27.2,4.1-21.82,16.86-37.2,35.98-47.67,13.25-7.26,27.63-10.89,42.52-12.5,7.29-.79,14.67-1.17,22-1.14,5.88,.02,11.75,.95,17.63,1.47,1.22,.11,2.44,.19,4.26,.34,0-2.12,.18-3.84-.03-5.51-1.29-10.52-6.23-18.64-15.71-23.79-5.72-3.11-11.89-4.86-18.28-5.41-17.2-1.49-34.19-.58-50.57,5.61-1.94,.73-3.86,1.52-5.8,2.24-.26,.1-.62-.07-1.27-.17Zm92.95,79.27c-.12,0-.24-.02-.36-.03,0-3.36,.05-6.72-.01-10.07-.07-3.84-.27-4.24-3.8-4.86-16.83-2.97-33.5-2.41-49.61,3.62-16.28,6.09-24.05,19.45-22.01,36.71,1.35,11.4,7.68,18.67,18.85,21.49,9.01,2.28,18.07,1.97,27.09,.09,16.13-3.36,26.18-13.96,28.45-30.26,.77-5.52,.95-11.13,1.4-16.69Z"/>
  <path class="cls-2" d="M1038.69,699.35c8.67-4.39,17.01-7.09,25.64-8.85,24.31-4.97,48.6-5.15,72.69,1.23,5.67,1.5,11.24,3.77,16.51,6.37,13.33,6.58,22.51,17.08,27.89,30.97,4.61,11.89,6.95,24.25,8.1,36.88,2,21.86,.52,43.79,1.09,65.68,.24,9.09,.74,18.21,1.88,27.22,1.37,10.82,4.99,20.84,13.69,28.26,.22,.18,.26,.57,.62,1.38-2.94,5.5-6.92,10.26-13.35,12.49-6.94,2.4-14.14,2.89-21.32,1.89-7.48-1.04-13.28-5.41-17.95-11.12-2.81-3.44-5.1-7.29-7.69-11.07-.29,.12-.86,.17-1.11,.48-8.79,10.59-20.65,16.07-33.55,19.25-20.42,5.03-40.72,4.31-60.12-4.3-21.43-9.51-32.38-26.67-34.23-49.84-.99-12.43,.08-24.59,4.8-36.26,7.26-17.92,20.75-29.61,37.9-37.51,14.58-6.71,30.14-9.59,46.02-10.56,10.68-.65,21.42-1.12,31.98,1.52,.73,.18,1.55,.02,2.4,.02,1.24-2.7,.38-5.18-.06-7.65-2.1-11.75-8.88-19.72-20-23.68-4.92-1.75-10.17-3.13-15.36-3.51-18.03-1.33-35.8-.12-52.67,7.32-.85,.37-1.78,.54-3.37,1-3.69-12.51-7.15-24.86-10.44-37.6Zm103.37,118.11c-.13-.01-.27-.02-.4-.03,0-3.83,.05-7.67-.01-11.5-.08-4.19-.43-4.58-4.47-5.37-10.14-1.97-20.37-1.99-30.51-.5-6.43,.94-12.96,2.32-18.96,4.72-15.27,6.1-21.83,16.85-21.3,33.28,.48,15.01,8.83,23.81,23.85,25.55,6.09,.7,12.1,.53,18.14-.16,17.52-2.02,28.61-11.97,32.09-29.35,1.09-5.43,1.09-11.08,1.59-16.64Z"/>
  <path class="cls-2" d="M401.11,824.85c3.16-5.51,5.81-10.04,8.38-14.61,4.07-7.25,7.95-14.61,12.17-21.77,10.34-17.56,22.63-33.75,35.92-49.11,13.07-15.1,26.49-29.94,40.44-44.23,28.88-29.58,60.43-56.12,94.26-79.9,3.53-2.48,6.98-5.09,10.63-7.39,1.86-1.17,4.01-1.94,6.12-2.61,2.16-.69,4.16-.13,5.5,1.83,1.33,1.96,.48,3.8-.86,5.23-3.05,3.26-6.12,6.55-9.47,9.49-22.13,19.45-42.91,40.23-62.38,62.33-25.71,29.18-47.08,61.34-65.29,95.64-11.99,22.59-24.02,45.17-35.67,67.93-5.16,10.09-9.68,20.54-14.03,31.02-4.17,10.02-10.69,16.83-21.7,18.92-3.43,.65-6.68,2.17-10.05,3.19-5.93,1.79-8.41,.74-11.26-4.81-3.86-7.54-7.37-15.27-11.47-22.67-15.41-27.83-37.03-49.51-64.92-64.9-1.95-1.07-3.9-2.24-5.56-3.69-2.08-1.81-2.09-3.26-.46-5.44,.66-.89,1.47-1.71,2.35-2.38,5.98-4.58,12.25-8.72,19.3-11.51,8.37-3.31,16.91-2.95,25.48-.99,11.01,2.52,20.69,7.79,28.9,15.39,6.67,6.17,12.71,13.02,18.99,19.61,1.4,1.47,2.67,3.07,4.69,5.43Z"/>
  <path class="cls-2" d="M381.21,773.41c-1.97-1.05-3.23-1.61-4.39-2.34-12.85-8.11-26.7-12.92-42.04-13.02-4.06-.03-4.33-.38-4.42-4.43-.08-3.84-.03-7.67-.03-11.51,0-40.14,0-80.27,0-120.41q0-7.35,7.38-7.55c23.97-.62,47.94-1.64,71.91-1.73,20.43-.08,40.49,2.94,59.45,11.19,14.44,6.28,26.85,15.41,37.49,26.98,.95,1.03,1.74,2.22,3.01,3.85-12.38,10.86-24.28,21.89-33.91,35.67-1.31-1.46-2.21-2.3-2.92-3.28-8.52-11.86-19.97-19.62-33.75-24.12-11.69-3.81-23.76-4.89-35.96-4.83-4.79,.02-9.59,.31-14.38,.61-2.19,.14-4.35,.61-6.86,.99-.12,2.39-.31,4.42-.31,6.46-.02,33.58,0,67.16-.02,100.74,0,2-.14,4-.25,6.74Z"/>
  <path class="cls-1" d="M540.99,713.47c.35,2.5,.73,3.84,.7,5.17-.3,18.05-.1,36.13-1.17,54.13-1.09,18.41-5.04,36.37-12.21,53.5-12.02,28.7-32.68,48.44-61.75,59.31-6.71,2.51-13.73,4.21-20.63,6.22-.99,.29-2.1,.21-3.16,.3-.05-.64-.19-1.01-.08-1.26,10.41-22.11,19.8-44.71,31.7-66.11,9.71-17.46,19.22-35.02,28.99-52.44,6.64-11.84,13.39-23.64,20.46-35.23,4.07-6.67,8.88-12.89,13.4-19.28,.88-1.24,1.98-2.31,3.74-4.32Z"/>
  <path class="cls-1" d="M330.9,852.32c12.97,14.58,23.31,29.59,30.87,47.54-10.84,.55-20.63,.25-30.26-.68-1.37-3.71-1.85-36.96-.61-46.86Z"/>
</svg>